<svg width="281" height="70" viewBox="0 0 281 70" fill="none" xmlns="http://www.w3.org/2000/svg">
<rect width="281" height="70" rx="35" fill="url(#paint0_linear_887_22200)"/>
<path d="M97.5 31.56L94.9 31.3C95.32 29.66 95.38 28.42 95.38 27.2H85.26V25.12H98.02V26.64C98.02 28.1 98.02 29.66 97.5 31.56ZM91.58 40.74C94.08 40.74 95.5 40.24 95.5 39.26C95.5 38.26 94.08 37.76 91.58 37.76C89.1 37.76 87.68 38.26 87.68 39.26C87.68 40.24 89.1 40.74 91.58 40.74ZM91.58 35.78C95.56 35.78 98.12 37.1 98.12 39.26C98.12 41.4 95.56 42.72 91.58 42.72C87.62 42.72 85.06 41.4 85.06 39.26C85.06 37.1 87.62 35.78 91.58 35.78ZM92.18 32.54H99.98V34.62H83.4V32.54H89.54V29.32H92.18V32.54ZM113.858 31.06V29.16H106.278V31.06H113.858ZM116.458 25V33.16H103.658V25H106.278V27.1H113.858V25H116.458ZM118.438 34.9V37H111.358V42.74H108.718V37H101.758V34.9H118.438ZM132.297 25.72V28.4C132.297 31.82 133.757 35.18 136.877 36.52L135.377 38.66C133.257 37.7 131.837 35.88 131.017 33.62C130.197 36.08 128.697 38.06 126.497 39.1L124.917 36.92C128.137 35.54 129.657 31.98 129.657 28.4V25.72H132.297ZM137.777 24.28H140.417V42.76H137.777V24.28ZM154.555 32.72L153.215 34.76C151.215 34.12 149.835 32.82 149.035 31.2C148.215 32.98 146.775 34.4 144.655 35.1L143.275 33.04C146.275 32.06 147.575 29.76 147.635 27.48H143.975V25.38H153.935V27.48H150.335C150.395 29.6 151.655 31.78 154.555 32.72ZM145.755 38.32V36.22H158.055V42.74H155.415V38.32H145.755ZM160.495 28.74V30.92H158.055V35.4H155.415V24.3H158.055V28.74H160.495ZM167.274 36.8C168.514 36.8 169.414 35.96 169.414 34.54C169.414 33.16 168.514 32.3 167.274 32.3C166.034 32.3 165.114 33.16 165.114 34.56C165.114 35.96 166.034 36.8 167.274 36.8ZM167.274 30.16C169.934 30.16 171.914 31.98 171.914 34.54C171.914 37.14 169.934 38.96 167.274 38.96C164.594 38.96 162.594 37.14 162.594 34.54C162.594 31.98 164.594 30.16 167.274 30.16ZM168.574 24.62V27.02H172.574V29.12H161.854V27.02H165.934V24.62H168.574ZM179.054 31.5V33.68H176.414V42.72H173.774V24.3H176.414V31.5H179.054ZM181.372 26.2H190.212C190.212 31.84 188.312 36.44 181.772 39.6L180.392 37.52C185.092 35.26 187.132 32.38 187.512 28.3H181.372V26.2ZM193.032 24.28H195.692V42.7H193.032V24.28Z" fill="white"/>
<defs>
<linearGradient id="paint0_linear_887_22200" x1="0" y1="35" x2="281" y2="35" gradientUnits="userSpaceOnUse">
<stop stop-color="#F68657"/>
<stop offset="1" stop-color="#F6B352"/>
</linearGradient>
</defs>
</svg>
